<svg width="85" height="19" viewBox="0 0 85 19" fill="none" xmlns="http://www.w3.org/2000/svg">
<path d="M28.576 0.631999C30.16 0.631999 31.424 1.12 32.368 2.096C33.328 3.072 33.808 4.544 33.808 6.512V14H28.384V7.448C28.384 5.944 27.896 5.192 26.92 5.192C26.408 5.192 25.992 5.384 25.672 5.768C25.368 6.152 25.216 6.76 25.216 7.592V14H19.792V7.448C19.792 5.944 19.304 5.192 18.328 5.192C17.816 5.192 17.4 5.384 17.08 5.768C16.776 6.152 16.624 6.76 16.624 7.592V14H11.2V0.871999H16.36V2.096C17.336 1.12 18.576 0.631999 20.08 0.631999C20.96 0.631999 21.752 0.799999 22.456 1.136C23.16 1.456 23.736 1.952 24.184 2.624C24.712 1.984 25.352 1.496 26.104 1.16C26.856 0.807999 27.68 0.631999 28.576 0.631999ZM51.2926 0.871999L45.8926 14.264C45.2046 15.976 44.3486 17.176 43.3246 17.864C42.3006 18.552 41.0446 18.896 39.5566 18.896C38.8206 18.896 38.0766 18.784 37.3246 18.56C36.5886 18.352 36.0046 18.072 35.5726 17.72L37.3726 14C37.6446 14.208 37.9486 14.376 38.2846 14.504C38.6366 14.632 38.9726 14.696 39.2926 14.696C39.8846 14.696 40.3326 14.52 40.6366 14.168L35.1166 0.871999H40.6846L43.3966 7.904L46.1566 0.871999H51.2926ZM61.9919 0.631999C63.6079 0.631999 64.9039 1.12 65.8799 2.096C66.8719 3.072 67.3679 4.544 67.3679 6.512V14H61.9439V7.448C61.9439 5.944 61.4079 5.192 60.3359 5.192C59.7279 5.192 59.2319 5.408 58.8479 5.84C58.4799 6.256 58.2959 6.92 58.2959 7.832V14H52.8719V0.871999H58.0319V2.168C58.5439 1.656 59.1359 1.272 59.8079 1.016C60.4799 0.759999 61.2079 0.631999 61.9919 0.631999ZM78.7534 14L76.9534 11.192L74.9374 14H69.0574L74.0254 7.496L69.2014 0.871999H75.3214L77.1934 3.656L79.1614 0.871999H84.8494L80.0254 7.256L84.9694 14H78.7534Z" fill="white"/>
<path fill-rule="evenodd" clip-rule="evenodd" d="M3 14C4.65685 14 6 12.6569 6 11C6 9.34315 4.65685 8 3 8C1.34315 8 0 9.34315 0 11C0 12.6569 1.34315 14 3 14Z" fill="white"/>
</svg>
