<svg width="85" height="19" viewBox="0 0 85 19" fill="none" xmlns="http://www.w3.org/2000/svg">
<path d="M28.576 0.631999C26.776 0.631999 25.24 1.352 24.184 2.624C23.272 1.256 21.784 0.631999 20.08 0.631999C18.64 0.631999 17.344 1.112 16.36 2.096V0.871999H11.2V14H16.624V7.592C16.624 5.84 17.368 5.192 18.328 5.192C19.24 5.192 19.792 5.816 19.792 7.448V14H25.216V7.592C25.216 5.84 25.96 5.192 26.92 5.192C27.784 5.192 28.384 5.816 28.384 7.448V14H33.808V6.512C33.808 2.384 31.552 0.631999 28.576 0.631999ZM46.1566 0.871999L43.3966 7.904L40.6846 0.871999H35.1166L40.6366 14.168C40.3486 14.504 39.9406 14.696 39.2926 14.696C38.6446 14.696 37.9006 14.408 37.3726 14L35.5726 17.72C36.4606 18.44 38.1166 18.896 39.5566 18.896C42.3406 18.896 44.4526 17.864 45.8926 14.264L51.2926 0.871999H46.1566ZM61.9919 0.631999C60.4559 0.631999 59.0639 1.136 58.0319 2.168V0.871999H52.8719V14H58.2959V7.832C58.2959 5.888 59.2319 5.192 60.3359 5.192C61.3199 5.192 61.9439 5.816 61.9439 7.448V14H67.3679V6.512C67.3679 2.384 65.0159 0.631999 61.9919 0.631999ZM84.9694 14L80.0254 7.256L84.8494 0.871999H79.1614L77.1934 3.656L75.3214 0.871999H69.2014L74.0254 7.496L69.0574 14H74.9374L76.9534 11.192L78.7534 14H84.9694Z" fill="#363636"/>
<path fill-rule="evenodd" clip-rule="evenodd" d="M3 14C4.65685 14 6 12.6569 6 11C6 9.34315 4.65685 8 3 8C1.34315 8 0 9.34315 0 11C0 12.6569 1.34315 14 3 14Z" fill="#363636"/>
</svg>
