<svg width="245" height="205" viewBox="0 0 245 205" fill="none" xmlns="http://www.w3.org/2000/svg">
<path fill-rule="evenodd" clip-rule="evenodd" d="M82.4395 76.2723L90.4057 39.0916H96.1511L101.399 76.2723H82.4395Z" fill="#B28B67"/>
<path fill-rule="evenodd" clip-rule="evenodd" d="M110.689 57.4948C104.773 59.0219 82.0871 47.3393 83.2734 30.4098C84.4596 13.4803 107.994 17.2046 112.572 25.7491C117.15 34.2937 116.606 55.9676 110.689 57.4948Z" fill="#B28B67"/>
<path fill-rule="evenodd" clip-rule="evenodd" d="M134.423 278.062L147.52 282.836C175.136 251.634 185.961 225.89 183.987 212.772C182.014 199.655 113.033 141.98 113.033 141.98L66.2103 141.98C67.8079 187.065 152.864 220.497 154.001 222.418C155.139 224.339 143.943 243.156 134.423 278.062Z" fill="#2F3676"/>
<path fill-rule="evenodd" clip-rule="evenodd" d="M0.271484 306.028L21.3346 309.983C37.6205 286.007 105.778 187.697 113.251 141.932H66.3594C41.4039 175.016 15.7953 281.655 0.271484 306.028Z" fill="#5C63AB"/>
<path fill-rule="evenodd" clip-rule="evenodd" d="M148.801 120.27L177.426 107.681C182.441 102.678 187.283 98.8747 191.953 96.2724C193.349 95.8272 195.735 95.6927 193.189 99.4155C190.644 103.138 188.134 107.169 189.151 108.473C190.168 109.778 193.114 108.338 194.278 110.46C195.054 111.874 190.088 113.566 179.38 115.536L157.941 131.995L148.801 120.27Z" fill="#B28B67"/>
<path fill-rule="evenodd" clip-rule="evenodd" d="M33.0725 123.737L49.2609 126.953C32.9807 157.335 24.2499 173.437 23.0685 175.26C20.4104 179.362 22.8905 186.879 23.8066 190.837C18.0594 192.177 20.3259 183.515 13.053 185.324C6.41459 186.974 0.786034 191.211 -5.404 185.497C-6.16503 184.795 -6.72214 182.599 -4.1274 181.473C2.33701 178.667 11.8876 173.414 13.4363 171.374C15.5481 168.593 22.0935 152.714 33.0725 123.737Z" fill="#B28B67"/>
<path fill-rule="evenodd" clip-rule="evenodd" d="M93.2604 63.0866L100.092 61.9133C114.971 76.3664 121.043 111.09 130.958 115.686C140.333 120.031 153.623 115.826 169.42 110.148L174.258 120.972C159.905 136.521 129.327 149.658 116.933 142.159C97.1168 130.168 92.5421 87.3424 93.2604 63.0866Z" fill="#DB2721"/>
<path fill-rule="evenodd" clip-rule="evenodd" d="M63.4805 149.052C63.4805 149.052 104.566 149.052 123.925 149.052C126.686 149.052 126.166 145.058 125.767 143.043C121.159 119.785 103.171 94.7136 103.171 61.6062L85.7362 58.8685C71.3153 82.0934 66.3283 110.688 63.4805 149.052Z" fill="#DDE3E9"/>
<path fill-rule="evenodd" clip-rule="evenodd" d="M50.0508 165.664H104.46C114.993 139.009 91.515 58.8685 91.515 58.8685H84.8108C71.7757 82.1614 52.598 127.188 50.0508 165.664Z" fill="#FF4133"/>
<path fill-rule="evenodd" clip-rule="evenodd" d="M84.6119 58.8685L87.7588 58.8685L88.7609 64.3509C61.9102 119.976 41.1167 156.384 26.3805 173.575L13.7109 171.09C21.8721 120.407 45.5058 82.9999 84.6119 58.8685Z" fill="#FF4133"/>
<path fill-rule="evenodd" clip-rule="evenodd" d="M141 74.2564C141 63.1174 150.002 54 161 54V74.2564L147.332 89C143.444 85.3954 141 80.1074 141 74.2564Z" fill="#F2F2F2"/>
<path fill-rule="evenodd" clip-rule="evenodd" d="M160.471 74H180.668C180.668 79.221 178.538 84.113 175.171 87.668C171.468 91.556 166.195 94 160.471 94C155.198 94 150.372 91.891 146.668 88.557L160.471 74Z" fill="#2B44FF"/>
<path fill-rule="evenodd" clip-rule="evenodd" d="M181 74C181 63.002 171.998 54 161 54V74H181ZM151 54L159 72L141 64C142.78 59.334 146.777 55.78 151 54Z" fill="#FF9B21"/>
<rect x="156" y="21" width="4" height="16" rx="2" fill="#DDE3E9"/>
<rect x="165" y="10" width="4" height="27" rx="2" fill="#DDE3E9"/>
<rect x="174" y="5" width="4" height="32" rx="2" fill="#DDE3E9"/>
<rect x="183" y="10" width="4" height="27" rx="2" fill="#DDE3E9"/>
<rect x="192" width="4" height="37" rx="2" fill="#89C5CC"/>
<path fill-rule="evenodd" clip-rule="evenodd" d="M228.051 68.5039C226.573 70.0679 224.479 71.05 222.15 71.05C217.675 71.05 214.048 67.4459 214.048 63C214.048 58.5541 217.675 54.95 222.15 54.95V40C209.42 40 199 50.3523 199 63C199 75.6477 209.42 86 222.15 86C228.837 86 234.88 83.1894 239 78.7182L228.051 68.5039Z" fill="#F2F2F2"/>
<path fill-rule="evenodd" clip-rule="evenodd" d="M222 40V54.95C226.446 54.95 230.05 58.5541 230.05 63H245C245 50.3523 234.648 40 222 40Z" fill="#FF9B21"/>
<path fill-rule="evenodd" clip-rule="evenodd" d="M230.073 63C230.073 65.5552 228.869 67.8266 227 69.2931L236.196 81C241.55 76.8088 245 70.312 245 63H230.073Z" fill="#C5CFD6"/>
</svg>
