<svg width="183" height="207" viewBox="0 0 183 207" fill="none" xmlns="http://www.w3.org/2000/svg">
<path fill-rule="evenodd" clip-rule="evenodd" d="M97.7578 75.2135L105.736 38.0593H111.49L116.747 75.2135H97.7578Z" fill="#B28B67"/>
<path fill-rule="evenodd" clip-rule="evenodd" d="M126.051 56.4494C120.126 57.9755 97.4057 46.3012 98.5938 29.3838C99.7818 12.4664 123.352 16.188 127.937 24.7265C132.522 33.2649 131.977 54.9234 126.051 56.4494Z" fill="#B28B67"/>
<path fill-rule="evenodd" clip-rule="evenodd" d="M117.114 14.8856C114.612 14.4756 107.873 14.1936 106.63 14.1938C105.836 14.1938 104.975 14.3751 104.505 13.6465C104.12 13.0499 104.261 12.0409 104.146 11.3485C104.013 10.5443 103.823 9.75037 103.631 8.95847C103.085 6.70508 102.26 4.56126 101.106 2.54848C98.939 -1.22773 95.7651 -4.18566 91.7582 -5.90687C87.3334 -7.80735 82.3264 -8.24252 77.5669 -7.85704C72.4736 -7.44462 67.863 -5.76472 63.0541 -4.18384C58.4715 -2.67739 53.6717 -2.08443 48.8787 -2.82009C44.0497 -3.5612 40.4009 -6.17623 36.3277 -8.65822C32.1578 -11.1992 27.3925 -12.8611 22.463 -12.479C17.8615 -12.1223 13.6205 -10.224 9.81554 -7.68814C6.25554 -5.31554 3.31808 -2.46099 1.65967 1.55656C-0.124419 5.87824 -0.122784 10.622 2.81104 14.4413C7.0635 19.9775 14.958 21.4092 21.526 21.2668C25.325 21.1848 29.056 20.4919 32.6427 19.2315C37.426 17.5505 41.5595 14.7014 46.0345 12.3898C48.1345 11.305 50.3053 10.4141 52.5806 9.77239C54.7885 9.14939 56.9633 8.86365 58.9624 10.1963C61.0772 11.6061 62.9722 12.9909 65.3915 13.8735C67.7124 14.7202 70.1708 15.1937 72.6436 15.1746C77.4546 15.1375 82.1973 13.6398 86.8699 12.6366C90.6804 11.8187 94.7574 11.0035 98.6421 11.7897C100.263 12.1179 102.631 12.7953 103.216 14.4785C93.3623 16.2628 89.4921 28.4389 92.2702 37.3773C93.7695 42.2016 102.782 47.8413 106.286 45.305C108.506 43.6983 107.159 41.5888 106.286 40.1963C104.616 37.5296 104.045 34.1041 107.135 32.2475C109.802 30.6462 112.605 34.4488 112.658 34.4446C113.391 34.3869 119.722 30.8092 124.085 25.5883C128.389 25.8432 129.042 23.0079 128.014 20.6893C126.986 18.3706 120.572 15.4525 117.114 14.8856Z" fill="#191847"/>
<path fill-rule="evenodd" clip-rule="evenodd" d="M91.4297 140.826L129.472 241.401L156.137 315.53H171.342L134.688 140.826L91.4297 140.826Z" fill="#1F28CF"/>
<path fill-rule="evenodd" clip-rule="evenodd" d="M82.0271 140.826C81.6136 175.335 81.9125 221.796 80.949 223.948C79.9855 226.099 21.0117 272.966 21.0117 272.966L28.8486 286.281C28.8486 286.281 98.8641 241.169 102.444 235.159C106.023 229.148 124.007 173.84 133.363 140.826H82.0271Z" fill="#2B44FF"/>
<path fill-rule="evenodd" clip-rule="evenodd" d="M158.507 130.717L183.746 149.233C190.591 151.079 196.31 153.375 200.902 156.121C201.987 157.109 203.298 159.109 198.799 158.764C194.3 158.418 189.552 158.256 188.931 159.79C188.31 161.323 191.033 163.157 189.778 165.225C188.941 166.604 184.989 163.146 177.921 154.851L152.928 144.496L158.507 130.717Z" fill="#B28B67"/>
<path fill-rule="evenodd" clip-rule="evenodd" d="M61.6049 131.356C61.6049 131.356 53.709 177.161 51.3904 181.86C50.2569 184.158 41.8678 191.138 36.0462 195.126C33.7096 196.727 34.6767 198.776 35.5592 199.32C42.7376 203.745 47.4639 198.512 53.677 195.624C60.484 192.46 59.9091 201.394 65.3051 198.982C63.6484 195.272 59.7741 188.368 61.6049 183.834C62.8255 180.812 78.1391 131.421 78.1391 131.421L61.6049 131.356Z" fill="#B28B67"/>
<path fill-rule="evenodd" clip-rule="evenodd" d="M108.594 62.0372L115.436 60.8647C140.82 82.7742 151.247 124.865 182.362 147.162L174.873 156.437C120.894 149.759 107.514 98.4189 108.594 62.0372Z" fill="#E87613"/>
<path fill-rule="evenodd" clip-rule="evenodd" d="M78.7695 147.941C78.7695 147.941 119.918 147.941 139.306 147.941C142.072 147.941 141.551 143.95 141.151 141.936C136.536 118.695 118.521 93.6415 118.521 60.5579L101.059 57.8221C86.6163 81.0304 81.6217 109.604 78.7695 147.941Z" fill="#DDE3E9"/>
<path fill-rule="evenodd" clip-rule="evenodd" d="M65.3184 164.542H119.811C130.36 137.905 106.834 58.2449 106.834 58.2449L99.4199 57.8221C86.5014 81.0983 67.8695 126.093 65.3184 164.542Z" fill="#FF9B21"/>
<path fill-rule="evenodd" clip-rule="evenodd" d="M99.7387 57.8221C99.7387 57.8221 48.7026 104.462 51.0762 181.142H64.0591C80.9803 151.69 104.878 62.3868 104.878 62.3868L99.7387 57.8221Z" fill="#FF9B21"/>
<path fill-rule="evenodd" clip-rule="evenodd" d="M99.7406 57.8221C99.7406 57.8221 48.7045 104.462 51.0781 181.142H64.0611C80.9822 151.69 104.88 62.3868 104.88 62.3868L99.7406 57.8221Z" fill="#FF9B21"/>
</svg>
