<svg width="512" height="492" viewBox="0 0 512 492" fill="none" xmlns="http://www.w3.org/2000/svg">
<rect x="70" width="396" height="346" rx="8" fill="#F2F2F2"/>
<rect x="380" y="43" width="70" height="81" rx="8" fill="white"/>
<path fill-rule="evenodd" clip-rule="evenodd" d="M415 90C423.837 90 431 82.8366 431 74C431 65.1634 423.837 58 415 58C406.163 58 399 65.1634 399 74C399 82.8366 406.163 90 415 90Z" fill="#DDE3E9"/>
<path d="M70 8C70 3.58172 73.5817 0 78 0H458C462.418 0 466 3.58172 466 8V27H70V8Z" fill="#C5CFD6"/>
<path fill-rule="evenodd" clip-rule="evenodd" d="M83 18C85.2091 18 87 16.2091 87 14C87 11.7909 85.2091 10 83 10C80.7909 10 79 11.7909 79 14C79 16.2091 80.7909 18 83 18Z" fill="#F2F2F2"/>
<path fill-rule="evenodd" clip-rule="evenodd" d="M95 18C97.2091 18 99 16.2091 99 14C99 11.7909 97.2091 10 95 10C92.7909 10 91 11.7909 91 14C91 16.2091 92.7909 18 95 18Z" fill="#F2F2F2"/>
<path fill-rule="evenodd" clip-rule="evenodd" d="M107 18C109.209 18 111 16.2091 111 14C111 11.7909 109.209 10 107 10C104.791 10 103 11.7909 103 14C103 16.2091 104.791 18 107 18Z" fill="#F2F2F2"/>
<rect x="380" y="132" width="70" height="194" rx="8" fill="white"/>
<rect x="398" y="150" width="34" height="26" rx="4" fill="#DDE3E9"/>
<rect x="398" y="184" width="34" height="25" rx="4" fill="#AFB9C5"/>
<rect x="86" y="44" width="286" height="47" rx="4" fill="white"/>
<rect x="95" y="58.1" width="228" height="7.05" rx="3" fill="#DDE3E9"/>
<rect x="95" y="69.85" width="153.041" height="7.05" rx="3" fill="#DDE3E9"/>
<path fill-rule="evenodd" clip-rule="evenodd" d="M316.955 74.5C320.821 74.5 323.955 71.366 323.955 67.5C323.955 63.634 320.821 60.5 316.955 60.5C313.089 60.5 309.955 63.634 309.955 67.5C309.955 71.366 313.089 74.5 316.955 74.5Z" fill="#DDE3E9"/>
<path fill-rule="evenodd" clip-rule="evenodd" d="M316.955 70.5C318.612 70.5 319.955 69.1569 319.955 67.5C319.955 65.8431 318.612 64.5 316.955 64.5C315.298 64.5 313.955 65.8431 313.955 67.5C313.955 69.1569 315.298 70.5 316.955 70.5Z" fill="#F2F2F2"/>
<rect x="86" y="99" width="286" height="39" rx="4" fill="white"/>
<path fill-rule="evenodd" clip-rule="evenodd" d="M316.955 121.5C318.612 121.5 319.955 120.157 319.955 118.5C319.955 116.843 318.612 115.5 316.955 115.5C315.298 115.5 313.955 116.843 313.955 118.5C313.955 120.157 315.298 121.5 316.955 121.5Z" fill="#F2F2F2"/>
<rect x="95" y="157.7" width="228" height="5.85" rx="2.925" fill="#DDE3E9"/>
<path fill-rule="evenodd" clip-rule="evenodd" d="M316.955 172.5C320.821 172.5 323.955 169.366 323.955 165.5C323.955 161.634 320.821 158.5 316.955 158.5C313.089 158.5 309.955 161.634 309.955 165.5C309.955 169.366 313.089 172.5 316.955 172.5Z" fill="#DDE3E9"/>
<rect x="86" y="287" width="286" height="39" rx="4" fill="white"/>
<rect x="95" y="298.7" width="228" height="5.85" rx="2.925" fill="#DDE3E9"/>
<rect x="95" y="308.45" width="153.041" height="5.85" rx="2.925" fill="#DDE3E9"/>
<path fill-rule="evenodd" clip-rule="evenodd" d="M316.955 313.5C320.821 313.5 323.955 310.366 323.955 306.5C323.955 302.634 320.821 299.5 316.955 299.5C313.089 299.5 309.955 302.634 309.955 306.5C309.955 310.366 313.089 313.5 316.955 313.5Z" fill="#DDE3E9"/>
<rect x="86" y="240" width="286" height="39" rx="4" fill="white"/>
<rect x="95" y="251.7" width="228" height="5.85" rx="2.925" fill="#DDE3E9"/>
<rect x="95" y="261.45" width="153.041" height="5.85" rx="2.925" fill="#DDE3E9"/>
<rect x="86" y="193" width="286" height="39" rx="4" fill="white"/>
<path fill-rule="evenodd" clip-rule="evenodd" d="M109.126 210.046L112.21 167.499L118.619 166.598L130.278 207.073L109.126 210.046Z" fill="#B28B67"/>
<path fill-rule="evenodd" clip-rule="evenodd" d="M137.711 184.76C131.349 187.384 104.217 177.964 102.898 158.974C101.578 139.983 128.415 140.43 134.856 149.203C141.297 157.976 144.074 182.136 137.711 184.76Z" fill="#B28B67"/>
<path fill-rule="evenodd" clip-rule="evenodd" d="M125.05 140.04C122.036 139.568 117.798 139.86 116.062 140.309C116.729 137.77 116.752 135.042 116.061 132.486C115.39 130.002 113.955 128.009 112.59 125.901C111.961 124.929 111.268 123.972 110.34 123.291C109.395 122.598 108.267 122.211 107.128 122.111C105.962 122.009 104.784 122.196 103.686 122.592C103.201 122.767 102.784 123.059 102.311 123.254C101.827 123.455 101.539 123.175 101.13 122.912C100.144 122.276 98.8029 122.082 97.672 122.104C96.4032 122.129 95.135 122.499 94.0025 123.075C92.9003 123.636 91.8785 124.438 91.1735 125.498C90.8596 125.969 90.5882 126.494 90.4423 127.052C90.3824 127.281 90.3855 127.411 90.1803 127.52C89.9905 127.622 89.7567 127.657 89.56 127.756C87.6578 128.711 86.1666 130.489 85.5145 132.595C85.1341 133.823 85.1623 135.888 85.5523 138.152C85.9422 140.416 88.8355 146.06 91.0659 147.954C93.0567 149.644 95.7631 150.563 98.2805 150.779C96.9209 152.851 96.1672 155.308 95.6999 157.764C95.1922 160.433 95.0284 163.154 95.2095 165.878C95.3816 168.466 95.745 171.178 96.6997 173.6C97.5927 175.866 99.0681 177.62 101.251 178.557C102.251 178.986 103.302 179.267 104.353 179.511C105.389 179.751 106.426 179.98 107.486 180.047C109.49 180.175 111.726 179.791 113.009 178.034C113.472 177.4 113.968 176.616 114.267 175.88C114.374 175.615 114.437 175.443 114.231 175.228C113.985 174.97 113.62 174.797 113.323 174.61C111.63 173.544 110.454 171.969 109.933 169.974C109.404 167.949 109.585 165.215 111.466 164.034C113.788 162.577 116.695 163.467 119.064 164.344C119.537 160.919 121.042 157.684 123.842 155.75C126.941 153.61 130.738 152.877 133.961 150.962C134.801 150.463 135.651 149.911 136.201 149.057C136.431 148.7 136.695 148.242 136.746 147.806C136.812 147.233 136.389 146.82 136.052 146.428C134.267 144.349 128.064 140.513 125.05 140.04Z" fill="#191847"/>
<path fill-rule="evenodd" clip-rule="evenodd" d="M116.699 279.93L182.832 390.159L232.412 483.349H243.092L160.019 279.93L116.699 279.93Z" fill="#997659"/>
<path fill-rule="evenodd" clip-rule="evenodd" d="M228.567 478.149C227.493 477.686 226.222 478.161 225.827 479.261C225.19 481.036 224.391 483.551 224.391 484.995C224.391 487.395 225.193 492 225.193 492C227.985 492 275.39 492 275.39 492C275.39 492 277.347 485.551 273.131 485.036C268.916 484.522 266.127 484.108 266.127 484.108L242.898 473.783C242.384 473.555 241.782 473.795 241.567 474.315L240.111 477.837C240.111 477.837 236.208 479.653 233.768 479.653C232.348 479.653 230.154 478.834 228.567 478.149Z" fill="#E4E4E4"/>
<path fill-rule="evenodd" clip-rule="evenodd" d="M218.643 468.426L239.238 462.215C239.238 462.215 225.703 421.876 206.061 373.431C186.418 324.986 163.87 279.93 163.87 279.93H105.703C105.703 279.93 130.772 336.924 158.856 383.503C186.939 430.081 218.643 468.426 218.643 468.426Z" fill="#DB2721"/>
<path fill-rule="evenodd" clip-rule="evenodd" d="M112.354 279.93C106.112 318.665 94.0733 368.154 92.9372 369.681C92.1798 370.699 64.913 379.809 11.1367 397.009L13.4436 406.398C77.5716 397.173 111.362 390.016 114.814 384.927C119.992 377.293 145.846 316.987 155.86 279.93H112.354Z" fill="#B28B67"/>
<path fill-rule="evenodd" clip-rule="evenodd" d="M30.041 388.893L34.1043 404.015C82.0683 408.209 111.457 405.178 122.27 394.923C133.083 384.668 145.407 346.337 159.242 279.93H103.776C95.0111 334.308 90.1107 362.639 89.0753 364.922C88.0398 367.204 68.3618 375.195 30.041 388.893Z" fill="#FF4133"/>
<path fill-rule="evenodd" clip-rule="evenodd" d="M15.1208 395.589C15.3928 394.449 14.7009 393.275 13.5445 393.078C11.6807 392.761 9.06103 392.414 7.6362 392.664C5.26539 393.081 0.856276 394.668 0.856276 394.668C1.34123 397.41 9.573 443.955 9.573 443.955C9.573 443.955 16.2832 444.756 16.0591 440.527C15.835 436.299 15.7602 433.489 15.7602 433.489L21.9234 408.895C22.0605 408.347 21.7179 407.795 21.1666 407.674L17.4365 406.856C17.4365 406.856 14.9656 403.34 14.5419 400.944C14.296 399.554 14.7209 397.265 15.1208 395.589Z" fill="#E4E4E4"/>
<path fill-rule="evenodd" clip-rule="evenodd" d="M151.023 222.706L179.266 201.703C183.507 194.965 187.862 189.583 192.331 185.557C193.751 184.717 196.336 183.966 194.482 188.679C192.629 193.391 190.891 198.432 192.337 199.6C193.783 200.769 196.654 198.449 198.467 200.473C199.677 201.823 194.652 204.929 183.395 209.792L164.018 233.207L151.023 222.706Z" fill="#997659"/>
<path fill-rule="evenodd" clip-rule="evenodd" d="M200.915 230.066L213.318 220.818C213.318 220.818 214.638 209.692 218.562 209.072C220.445 207.854 218.207 217.385 221.916 216.065C225.624 214.744 233.973 206.524 235.776 207.701C238.444 209.443 237.221 216.115 235.171 219.637C231.339 226.219 227.761 228.788 218.587 232.784C211.392 235.917 203.569 243.403 203.569 243.403L200.915 230.066Z" fill="#997659"/>
<path fill-rule="evenodd" clip-rule="evenodd" d="M135.603 221.079C146.302 219.46 160.273 215.196 174.163 203.405L182.022 215.875C172.968 227.758 159.382 238.385 146.402 239.841C136.173 240.987 129.239 229.432 135.603 221.079Z" fill="#2026A2"/>
<path fill-rule="evenodd" clip-rule="evenodd" d="M94.2251 318.417C109.714 313.052 159.317 322.278 164.997 303.99C176.231 267.819 139.937 225.046 131.567 187.179L107.113 190.616C104.431 190.993 91.1009 228.388 94.2643 251.02C97.1531 271.687 79.7118 287.523 94.2251 318.417Z" fill="#1F28CF"/>
<path fill-rule="evenodd" clip-rule="evenodd" d="M129.134 187.521C129.134 187.521 133.555 236.743 150.967 240.096C168.378 243.45 208.852 222.351 208.852 222.351C208.852 222.351 221.702 241.499 222.18 250.355C134.494 312.924 86.6946 255.201 107.882 190.508L129.134 187.521Z" fill="#1F28CF"/>
<path fill-rule="evenodd" clip-rule="evenodd" d="M405.135 205.236L391.145 164.936L384.721 165.725L383.934 207.839L405.135 205.236Z" fill="#B28B67"/>
<path fill-rule="evenodd" clip-rule="evenodd" d="M370.979 188.21C377.803 189.098 401.573 172.977 397.932 154.292C394.291 135.607 368.485 142.985 364.534 153.126C360.583 163.267 364.154 187.322 370.979 188.21Z" fill="#B28B67"/>
<path fill-rule="evenodd" clip-rule="evenodd" d="M375.271 140.678C378.009 139.878 385.494 138.641 386.882 138.47C387.769 138.362 388.754 138.446 389.18 137.569C389.528 136.852 389.233 135.747 389.266 134.96C389.305 134.046 389.408 133.135 389.514 132.227C389.815 129.641 390.443 127.14 391.457 124.739C393.359 120.235 396.498 116.504 400.736 114.038C405.417 111.314 410.947 110.142 416.314 109.919C422.057 109.681 427.434 110.92 433.02 112.022C438.342 113.072 443.782 113.075 449.033 111.598C454.323 110.111 458.039 106.697 462.247 103.374C466.555 99.9711 471.648 97.4663 477.204 97.2162C482.39 96.9828 487.385 98.5163 491.98 100.82C496.279 102.975 499.949 105.753 502.35 110.001C504.933 114.572 505.58 119.857 502.827 124.514C498.837 131.265 490.219 133.942 482.866 134.684C478.614 135.113 474.353 134.853 470.176 133.94C464.606 132.723 459.601 130.116 454.289 128.154C451.796 127.233 449.25 126.538 446.622 126.135C444.072 125.744 441.605 125.723 439.555 127.482C437.387 129.343 435.46 131.145 432.88 132.46C430.405 133.722 427.725 134.586 424.961 134.904C419.585 135.522 414.085 134.504 408.731 134.027C404.365 133.638 399.701 133.289 395.471 134.697C393.707 135.285 391.156 136.364 390.732 138.32C401.978 138.957 407.965 151.991 406.086 162.331C405.072 167.911 395.781 175.43 391.521 173.084C388.823 171.599 390.039 169.064 390.823 167.393C392.323 164.193 392.492 160.298 388.787 158.653C385.592 157.235 382.982 161.856 382.922 161.858C382.096 161.894 374.538 158.776 368.953 153.558C364.183 154.432 363.066 151.363 363.896 148.638C364.726 145.914 371.488 141.784 375.271 140.678Z" fill="#191847"/>
<path fill-rule="evenodd" clip-rule="evenodd" d="M430.187 279.93C428.582 301.766 325.2 366.056 324.597 367.86C324.195 369.063 356.776 443.888 356.776 443.888L347.739 447.389C347.739 447.389 297.765 368.144 300.332 359.7C304.007 347.611 380.544 280.162 380.544 280.162L430.187 279.93Z" fill="#B28B67"/>
<path fill-rule="evenodd" clip-rule="evenodd" d="M354.398 432.622L339.643 437.977C308.531 402.979 296.336 374.102 298.56 359.389C300.783 344.676 378.496 279.983 378.496 279.983L431.245 279.983C429.445 330.554 333.623 368.053 332.342 370.208C331.06 372.363 343.673 393.469 354.398 432.622Z" fill="#2F3676"/>
<path fill-rule="evenodd" clip-rule="evenodd" d="M357.27 442.24C358.12 441.438 359.479 441.451 360.228 442.35C361.435 443.801 363.049 445.891 363.544 447.248C364.367 449.503 365.193 454.104 365.193 454.104C362.569 455.056 318.023 471.221 318.023 471.221C318.023 471.221 313.972 465.828 317.757 463.907C321.542 461.986 324.02 460.646 324.02 460.646L342.306 443.023C342.711 442.633 343.359 442.654 343.739 443.069L346.316 445.882C346.316 445.882 350.606 446.257 352.899 445.425C354.233 444.941 356.013 443.424 357.27 442.24Z" fill="#E4E4E4"/>
<path fill-rule="evenodd" clip-rule="evenodd" d="M418.299 279.93L464.353 390.159L509.617 483.349H498.938L382.1 279.93H418.299Z" fill="#997659"/>
<path fill-rule="evenodd" clip-rule="evenodd" d="M507.574 478.149C508.647 477.686 509.919 478.161 510.314 479.261C510.951 481.036 511.75 483.551 511.75 484.995C511.75 487.395 510.948 492 510.948 492C508.155 492 460.75 492 460.75 492C460.75 492 458.794 485.551 463.009 485.036C467.225 484.522 470.013 484.108 470.013 484.108L493.243 473.783C493.757 473.555 494.358 473.795 494.573 474.315L496.03 477.837C496.03 477.837 499.932 479.653 502.372 479.653C503.792 479.653 505.987 478.834 507.574 478.149Z" fill="#E4E4E4"/>
<path fill-rule="evenodd" clip-rule="evenodd" d="M505.529 463.99L481.8 468.426C463.453 441.533 386.668 331.263 378.249 279.93H431.076C459.19 317.038 488.04 436.652 505.529 463.99Z" fill="#5C63AB"/>
<path fill-rule="evenodd" clip-rule="evenodd" d="M336.948 263.33L303.218 253.245C296.927 248.363 290.993 244.794 285.415 242.538C283.793 242.234 281.107 242.412 284.462 246.207C287.817 250.002 291.175 254.144 290.216 255.737C289.257 257.329 285.766 256.13 284.754 258.652C284.08 260.333 289.864 261.535 302.108 262.258L328.33 277.639L336.948 263.33Z" fill="#B28B67"/>
<path fill-rule="evenodd" clip-rule="evenodd" d="M466.829 251.301L449.167 257.104C471.524 288.693 483.488 305.421 485.058 307.288C488.591 311.489 486.845 320.199 486.362 324.731C492.971 325.434 489.253 316.101 497.633 317.116C505.281 318.043 512.154 321.986 518.295 314.776C519.05 313.889 519.373 311.368 516.317 310.471C508.705 308.235 497.308 303.697 495.297 301.639C492.556 298.833 483.066 282.053 466.829 251.301Z" fill="#B28B67"/>
<path fill-rule="evenodd" clip-rule="evenodd" d="M391.236 192.042L383.437 191.674C368.776 209.807 366.733 249.298 356.273 255.776C346.384 261.901 330.949 259.045 312.509 254.892L308.579 267.606C326.754 282.947 362.741 293.374 375.575 283.323C396.094 267.254 395.355 218.947 391.236 192.042Z" fill="#DB2721"/>
<path fill-rule="evenodd" clip-rule="evenodd" d="M436.285 283.658C436.285 283.658 390.343 289.299 368.697 291.957C365.609 292.336 365.645 287.819 365.816 285.52C367.789 258.994 384.475 228.613 379.95 191.755L399.071 186.313C418.371 210.189 427.856 241.339 436.285 283.658Z" fill="#DDE3E9"/>
<path fill-rule="evenodd" clip-rule="evenodd" d="M453.573 300.309L392.734 307.779C377.312 279.55 392.61 187.106 392.61 187.106L400.107 186.186C417.866 210.328 445.465 257.824 453.573 300.309Z" fill="#FF4133"/>
<path fill-rule="evenodd" clip-rule="evenodd" d="M400.329 186.159L396.81 186.591L396.439 192.832C434.067 251.072 462.295 288.751 481.122 305.867L494.95 301.361C478.896 246.056 447.356 207.655 400.329 186.159Z" fill="#FF4133"/>
</svg>
