<svg width="213" height="219" viewBox="0 0 213 219" fill="none" xmlns="http://www.w3.org/2000/svg">
<path fill-rule="evenodd" clip-rule="evenodd" d="M80.1242 44C97.1254 44 149.333 77.3927 155.144 87.5C160.954 97.6073 162.251 162.136 155.144 174.5C148.036 186.864 95.0801 218 80.1242 218C65.1683 218 11.911 186.34 5.1047 174.5C-1.70157 162.66 -1.70157 99.3398 5.1047 87.5C11.911 75.6602 63.123 44 80.1242 44Z" fill="#DDAAC4"/>
<path fill-rule="evenodd" clip-rule="evenodd" d="M78.1422 66.4284C87.1849 66.4284 90.4736 55.612 95.611 49.6762C99.2868 45.4293 105.56 46.6957 107.417 40.7501C112.086 25.7994 99.5888 15.2767 83.2851 15.2767C66.9814 15.2767 55.9884 24.5054 53.6148 38.3785C51.2411 52.2517 61.8385 66.4284 78.1422 66.4284Z" fill="#191847"/>
<path fill-rule="evenodd" clip-rule="evenodd" d="M72.6035 87.2135L80.5819 50.0593H86.3362L91.5925 87.2135H72.6035Z" fill="#B28B67"/>
<path fill-rule="evenodd" clip-rule="evenodd" d="M100.897 68.4494C94.9716 69.9755 72.2514 58.3012 73.4395 41.3838C74.6275 24.4664 98.1978 28.188 102.783 36.7265C107.368 45.2649 106.823 66.9234 100.897 68.4494Z" fill="#B28B67"/>
<path fill-rule="evenodd" clip-rule="evenodd" d="M78.7315 58.8592C74.731 58.8592 60.1304 43.7352 74.6754 29.506C89.2204 15.2767 110.24 35.5897 103.924 36.7744C97.6074 37.959 80.1523 47.5618 78.7315 58.8592Z" fill="#35374E"/>
<path fill-rule="evenodd" clip-rule="evenodd" d="M84.8263 54.8025C87.5165 54.8025 89.6974 52.6789 89.6974 50.0594C89.6974 47.4398 87.5165 45.3163 84.8263 45.3163C82.136 45.3163 79.9551 47.4398 79.9551 50.0594C79.9551 52.6789 82.136 54.8025 84.8263 54.8025Z" fill="#35374E"/>
<path fill-rule="evenodd" clip-rule="evenodd" d="M66.2754 152.826L96.0492 250.078L110.472 332.785H121.781L106.541 152.826H66.2754Z" fill="#997659"/>
<path fill-rule="evenodd" clip-rule="evenodd" d="M62.3184 152.826L74.9777 202.375H113.644L107.879 152.826H62.3184Z" fill="#69A1AC"/>
<path fill-rule="evenodd" clip-rule="evenodd" d="M55.1984 152.826C48.9503 171.538 52.8248 202.375 52.8248 202.375H92.2826L103.133 152.826H55.1984Z" fill="#89C5CC"/>
<path fill-rule="evenodd" clip-rule="evenodd" d="M133.021 139.87L156.905 160.1C163.604 162.418 169.149 165.107 173.539 168.167C174.552 169.228 175.72 171.315 171.256 170.656C166.792 169.998 162.067 169.506 161.341 170.992C160.614 172.479 163.202 174.497 161.806 176.474C160.875 177.791 157.174 174.066 150.702 165.298L126.493 153.227L133.021 139.87Z" fill="#B28B67"/>
<path fill-rule="evenodd" clip-rule="evenodd" d="M24.869 131.115C24.869 131.115 7.79996 177.177 4.84927 181.509C3.40675 183.626 -5.87307 189.372 -12.1935 192.512C-14.7304 193.772 -14.0581 195.936 -13.2599 196.597C-6.76782 201.978 -1.35858 197.453 5.19636 195.457C12.3779 193.27 10.564 202.037 16.2436 200.399C15.1198 196.494 12.2449 189.119 14.6894 184.884C16.319 182.061 38.8827 133.149 38.8827 133.149L24.869 131.115Z" fill="#B28B67"/>
<path fill-rule="evenodd" clip-rule="evenodd" d="M83.4406 74.0372L92.124 71.1681C103.903 100.568 121.47 129.013 150.822 153.04L143.563 165.551C117.768 150.369 93.3493 138.575 83.4406 115.794C80.1149 108.148 83.1692 83.1795 83.4406 74.0372Z" fill="#C5CFD6"/>
<path fill-rule="evenodd" clip-rule="evenodd" d="M53.6152 156.779C53.6152 156.779 90.9267 160.731 112.352 156.779C114.121 156.452 114.4 153.492 113.58 151.483C100.8 120.197 92.0366 92.8985 92.0366 71.1681C88.5192 72.9398 79.7251 71.6991 79.7251 71.6991C63.9692 94.093 56.7267 119.787 53.6152 156.779Z" fill="#323337"/>
<path fill-rule="evenodd" clip-rule="evenodd" d="M75.832 69.4121C75.832 69.4121 22.2473 103.395 5.18809 176.84L20.2758 180.71C41.2994 118.923 73.4279 112.041 73.4279 112.041L75.832 69.4121Z" fill="#DDE3E9"/>
<path fill-rule="evenodd" clip-rule="evenodd" d="M23.0625 240.262H103.612C88.7251 200.465 83.9029 78.8062 82.374 69.8221H74.6068C58.4996 106.996 25.817 182.756 23.0625 240.262Z" fill="#DDE3E9"/>
<path fill-rule="evenodd" clip-rule="evenodd" d="M188.7 9.37568C198.206 10.7561 208.094 15.2266 208.011 26.2916C207.941 35.5948 200.139 45.4962 190.119 44.9402C181.103 44.4406 172.612 34.5804 171.483 26.1304C170.898 21.7523 171.993 17.0388 174.568 13.4374C177.942 8.71867 183.296 8.72615 188.7 9.37568ZM184.21 3.36166C177.334 3.39905 172.304 5.88643 168.049 11.136C166.523 13.0182 164.748 15.0444 163.586 17.1771C162.501 19.1687 162.691 24.2336 166.415 21.8593C165.498 31.6649 171.229 41.1822 179.467 46.2065C188.422 51.6687 198.544 50.6037 205.997 42.9481C212.819 35.9402 215.22 24.1033 210.229 15.4364C205.241 6.77381 193.683 3.26867 184.21 3.36166Z" fill="#89C5CC"/>
<path fill-rule="evenodd" clip-rule="evenodd" d="M204.826 0.733579C200.424 3.95975 196.405 8.20788 193.067 12.5168C189.804 16.7284 187.647 21.9873 183.727 25.6597C181.748 23.5037 179.429 17.6808 175.48 19.9911C172.203 21.9079 174.313 25.2046 175.909 27.3691C180.03 32.9583 184.606 35.2079 189.891 29.6854C194.691 24.6705 197.417 17.9803 201.905 12.6766C203.873 10.3495 206.915 8.03965 208.482 5.47049C209.903 3.14152 208.146 -1.70614 204.826 0.733579Z" fill="#69A1AC"/>
</svg>
